# xmcd CD database file
#
# Track frame offsets:
#	150
#	12794
#	25432
#	42417
#	59326
#	73892
#	88492
#	102467
#	116441
#	131518
#	146603
#	159750
#	172915
#	189434
#	205885
#	220892
#	235899
#	250718
#	265518
#	280244
#	295138
#
# Disc length: 3953 seconds
#
# Revision: 0
# Processed by: cddbd v1.5.1PL0 Copyright (c) Steve Scherf et al.
# Submitted via: CDex 1.51
#
DISCID=330f6f15
DTITLE=Hal - Leonard - 10 Charlie Parkers Classics
DYEAR=1900
DGENRE=Jazz
TTITLE0=Now'sThe Time - Split Track - Melody
TTITLE1=Now'sThe Time - Full Stereo Track
TTITLE2=Scrapple From The Apple - Split Track - Melody
TTITLE3=Scrapple From The Apple - Full Stereo Track
TTITLE4=Yardbird Suite - Split Track - Melody
TTITLE5=Yardbird Suite - Full Stereo Track
TTITLE6=Moose The Mooche - Split Track - Melody
TTITLE7=Moose The Mooche - Full Stereo Track
TTITLE8=Confirmation - Split Track - Melody
TTITLE9=Confirmation - Full Stereo Track
TTITLE10=Ornithology - Split Track - Melody
TTITLE11=Ornithology - Full Stereo Track
TTITLE12=My little Suede Shoes - Split Track - Melody
TTITLE13=My little Suede Shoes - Full Stereo Track
TTITLE14=Donna Lee - Split Track - Melody
TTITLE15=Donna Lee - Full Stereo Track
TTITLE16=Au Privave - Split Track - Melody
TTITLE17=Au Privave - Full Stereo Track
TTITLE18=Billie's Bounce - Split Track - Melody
TTITLE19=Billie's Bounce - Full Stereo Track
TTITLE20=Tuning Notes
EXTD=
EXTT0=
EXTT1=
EXTT2=
EXTT3=
EXTT4=
EXTT5=
EXTT6=
EXTT7=
EXTT8=
EXTT9=
EXTT10=
EXTT11=
EXTT12=
EXTT13=
EXTT14=
EXTT15=
EXTT16=
EXTT17=
EXTT18=
EXTT19=
EXTT20=
PLAYORDER=
